<svg width="48" height="48" viewBox="0 0 48 48" fill="none" xmlns="http://www.w3.org/2000/svg">
<g id="Mail">
<g id="Group 2">
<path id="Vector" d="M38 19.4512V30.85C38.0001 32.0122 37.5554 33.1303 36.7573 33.9751C35.9591 34.8199 34.8679 35.3272 33.7076 35.393L33.45 35.4H14.55C13.3878 35.4 12.2696 34.9554 11.4249 34.1572C10.5801 33.3591 10.0728 32.2679 10.007 31.1076L10 30.85V19.4512L23.5128 26.5296C23.6631 26.6083 23.8303 26.6494 24 26.6494C24.1697 26.6494 24.3369 26.6083 24.4872 26.5296L38 19.4512Z" fill="#4F4F4F"/>
<path id="Vector_2" d="M14.5499 13H33.4499C34.5777 12.9999 35.6654 13.4186 36.502 14.175C37.3385 14.9314 37.8644 15.9715 37.9775 17.0936L23.9999 24.4156L10.0223 17.0936C10.1308 16.016 10.6202 15.0125 11.4024 14.2634C12.1845 13.5144 13.2083 13.0689 14.2895 13.007L14.5499 13H33.4499H14.5499Z" fill="#4F4F4F"/>
</g>
</g>
</svg>
