<svg width="40" height="40" viewBox="0 0 40 40" fill="none" xmlns="http://www.w3.org/2000/svg">
<g id="solar:trash-bin-2-outline">
<path id="Vector" fill-rule="evenodd" clip-rule="evenodd" d="M8.52835 12.92C8.85895 12.898 9.18475 13.0082 9.43414 13.2264C9.68353 13.4445 9.83611 13.7527 9.85835 14.0833L10.625 25.5833C10.775 27.8283 10.8817 29.3917 11.115 30.5667C11.3434 31.7083 11.66 32.3117 12.115 32.7383C12.5717 33.165 13.195 33.4417 14.3484 33.5917C15.5384 33.7467 17.105 33.75 19.355 33.75H20.645C22.895 33.75 24.4617 33.7467 25.6517 33.5917C26.805 33.4417 27.4284 33.165 27.885 32.7383C28.34 32.3117 28.6567 31.7083 28.885 30.5683C29.1184 29.3917 29.225 27.8283 29.375 25.5817L30.1417 14.0833C30.1526 13.9195 30.1957 13.7594 30.2685 13.6123C30.3413 13.4651 30.4424 13.3337 30.566 13.2256C30.6896 13.1175 30.8332 13.0348 30.9888 12.9822C31.1443 12.9297 31.3087 12.9082 31.4725 12.9192C31.6363 12.9301 31.7964 12.9732 31.9436 13.046C32.0907 13.1188 32.2221 13.2199 32.3302 13.3435C32.4383 13.4671 32.521 13.6107 32.5736 13.7663C32.6262 13.9218 32.6476 14.0862 32.6367 14.25L31.8634 25.8367C31.7217 27.9733 31.6067 29.7017 31.3367 31.0567C31.055 32.465 30.5784 33.6417 29.5917 34.5633C28.6067 35.4867 27.4 35.885 25.975 36.07C24.605 36.25 22.875 36.25 20.7317 36.25H19.2684C17.125 36.25 15.395 36.25 14.025 36.07C12.6 35.885 11.3934 35.4867 10.4084 34.5633C9.42169 33.6417 8.94502 32.4633 8.66335 31.0567C8.39335 29.7 8.28002 27.9733 8.13669 25.8367L7.36335 14.25C7.35249 14.0862 7.37401 13.9218 7.42668 13.7663C7.47935 13.6108 7.56214 13.4672 7.67033 13.3437C7.77852 13.2201 7.90998 13.1192 8.0572 13.0465C8.20442 12.9738 8.36452 12.9308 8.52835 12.92ZM17.2584 3.75H17.1817C16.8217 3.75 16.5067 3.75 16.21 3.79666C15.6322 3.88923 15.084 4.11577 14.6094 4.45813C14.1348 4.8005 13.7468 5.2492 13.4767 5.76833C13.3367 6.035 13.2384 6.33333 13.125 6.675L13.1 6.74833L12.9384 7.23166C12.8107 7.68527 12.5331 8.0822 12.1508 8.35767C11.7684 8.63313 11.304 8.77084 10.8334 8.74833H5.83335C5.50161 8.74833 5.18346 8.88011 4.94888 9.11469C4.7143 9.34927 4.58252 9.66742 4.58252 9.99916C4.58252 10.3309 4.7143 10.6491 4.94888 10.8836C5.18346 11.1182 5.50161 11.25 5.83335 11.25H34.1684C34.4999 11.25 34.8178 11.1183 35.0522 10.8839C35.2867 10.6495 35.4184 10.3315 35.4184 10C35.4184 9.66848 35.2867 9.35053 35.0522 9.11611C34.8178 8.88169 34.4999 8.75 34.1684 8.75H29.0167C28.5715 8.73932 28.1415 8.58628 27.7896 8.31333C27.4378 8.04038 27.1827 7.66188 27.0617 7.23333L26.9 6.74833L26.8767 6.675C26.7617 6.33333 26.6634 6.035 26.525 5.76833C26.2547 5.24899 25.8665 4.80017 25.3916 4.45779C24.9167 4.11541 24.3682 3.88899 23.79 3.79666C23.4678 3.75577 23.143 3.74017 22.8184 3.75H17.2584ZM15.2417 8.225C15.175 8.40666 15.1 8.58166 15.0134 8.75H24.9867C24.9004 8.5804 24.8247 8.40562 24.76 8.22666L24.6934 8.03666L24.5284 7.53666C24.4674 7.32777 24.3934 7.12292 24.3067 6.92333C24.2167 6.75001 24.0874 6.60018 23.9291 6.48586C23.7707 6.37153 23.5878 6.29589 23.395 6.265C23.1778 6.24628 22.9596 6.24127 22.7417 6.25H17.2584C16.7784 6.25 16.6784 6.25333 16.605 6.26666C16.4124 6.29738 16.2296 6.37277 16.0712 6.4868C15.9129 6.60082 15.7835 6.75032 15.6934 6.92333C15.66 6.99 15.6234 7.08166 15.4717 7.53833L15.305 8.03833L15.2417 8.225Z" fill="#F2F2F2"/>
</g>
</svg>
