<svg width="33" height="32" viewBox="0 0 33 32" fill="none" xmlns="http://www.w3.org/2000/svg">
<circle cx="16.5" cy="16" r="16" fill="#E3E4E6"/>
<path fill-rule="evenodd" clip-rule="evenodd" d="M10.8153 12.5375C10.9826 12.5264 11.1475 12.5822 11.2736 12.6926C11.3998 12.8029 11.477 12.9589 11.4883 13.1262L11.8762 18.9452C11.9521 20.0811 12.0061 20.8722 12.1242 21.4667C12.2397 22.0444 12.3999 22.3497 12.6302 22.5656C12.8612 22.7815 13.1767 22.9215 13.7602 22.9974C14.3624 23.0758 15.1551 23.0775 16.2936 23.0775H16.9464C18.0849 23.0775 18.8776 23.0758 19.4797 22.9974C20.0633 22.9215 20.3787 22.7815 20.6098 22.5656C20.84 22.3497 21.0003 22.0444 21.1158 21.4676C21.2339 20.8722 21.2878 20.0811 21.3637 18.9443L21.7517 13.1262C21.7572 13.0433 21.779 12.9623 21.8159 12.8878C21.8527 12.8133 21.9038 12.7469 21.9664 12.6922C22.0289 12.6375 22.1016 12.5956 22.1803 12.569C22.259 12.5424 22.3422 12.5316 22.4251 12.5371C22.508 12.5426 22.589 12.5644 22.6634 12.6013C22.7379 12.6381 22.8044 12.6893 22.8591 12.7518C22.9138 12.8143 22.9556 12.887 22.9822 12.9657C23.0088 13.0444 23.0197 13.1276 23.0141 13.2105L22.6228 19.0734C22.5511 20.1545 22.493 21.029 22.3563 21.7147C22.2138 22.4273 21.9726 23.0227 21.4734 23.489C20.975 23.9563 20.3644 24.1578 19.6433 24.2514C18.9501 24.3425 18.0747 24.3425 16.9902 24.3425H16.2498C15.1652 24.3425 14.2899 24.3425 13.5966 24.2514C12.8756 24.1578 12.265 23.9563 11.7666 23.489C11.2673 23.0227 11.0262 22.4264 10.8836 21.7147C10.747 21.0282 10.6897 20.1545 10.6171 19.0734L10.2258 13.2105C10.2203 13.1276 10.2312 13.0444 10.2579 12.9657C10.2845 12.8871 10.3264 12.8144 10.3812 12.7519C10.4359 12.6894 10.5024 12.6383 10.5769 12.6015C10.6514 12.5647 10.7324 12.543 10.8153 12.5375ZM15.2327 7.8975H15.1939C15.0117 7.8975 14.8524 7.8975 14.7022 7.92111C14.4098 7.96795 14.1325 8.08258 13.8923 8.25582C13.6522 8.42905 13.4559 8.65609 13.3192 8.91878C13.2483 9.05371 13.1986 9.20467 13.1412 9.37755L13.1286 9.41466L13.0468 9.65922C12.9822 9.88875 12.8417 10.0896 12.6483 10.229C12.4548 10.3684 12.2198 10.438 11.9816 10.4267H9.45165C9.28379 10.4267 9.1228 10.4933 9.0041 10.612C8.88541 10.7307 8.81873 10.8917 8.81873 11.0596C8.81873 11.2274 8.88541 11.3884 9.0041 11.5071C9.1228 11.6258 9.28379 11.6925 9.45165 11.6925H23.7892C23.9569 11.6925 24.1178 11.6259 24.2364 11.5072C24.355 11.3886 24.4217 11.2277 24.4217 11.06C24.4217 10.8922 24.355 10.7314 24.2364 10.6128C24.1178 10.4941 23.9569 10.4275 23.7892 10.4275H21.1824C20.9572 10.4221 20.7396 10.3447 20.5615 10.2065C20.3835 10.0684 20.2544 9.87691 20.1932 9.66007L20.1114 9.41466L20.0996 9.37755C20.0414 9.20467 19.9916 9.05371 19.9216 8.91878C19.7848 8.65599 19.5884 8.42889 19.3481 8.25564C19.1078 8.0824 18.8303 7.96783 18.5377 7.92111C18.3747 7.90042 18.2103 7.89253 18.0461 7.8975H15.2327ZM14.2123 10.1618C14.1785 10.2538 14.1406 10.3423 14.0967 10.4275H19.1432C19.0996 10.3417 19.0613 10.2532 19.0285 10.1627L18.9948 10.0666L18.9113 9.81355C18.8805 9.70785 18.843 9.6042 18.7992 9.50321C18.7536 9.41551 18.6882 9.33969 18.6081 9.28184C18.528 9.224 18.4354 9.18572 18.3379 9.17009C18.2279 9.16062 18.1175 9.15808 18.0073 9.1625H15.2327C14.9898 9.1625 14.9392 9.16419 14.9021 9.17093C14.8046 9.18648 14.7121 9.22462 14.632 9.28232C14.5519 9.34002 14.4864 9.41566 14.4408 9.50321C14.4239 9.53694 14.4054 9.58332 14.3286 9.8144L14.2443 10.0674L14.2123 10.1618Z" fill="url(#paint0_linear_203_468)"/>
<defs>
<linearGradient id="paint0_linear_203_468" x1="8.85615" y1="7.72756" x2="27.6456" y2="10.5657" gradientUnits="userSpaceOnUse">
<stop stop-color="#BC3CD8"/>
<stop offset="1" stop-color="#C54B8C"/>
</linearGradient>
</defs>
</svg>
