<svg width="60" height="60" viewBox="0 0 60 60" fill="none" xmlns="http://www.w3.org/2000/svg">
<g id="ph:arrow-right">
<path id="Vector" d="M51.9516 31.3266L35.0766 48.2016C34.7247 48.5534 34.2476 48.7511 33.75 48.7511C33.2524 48.7511 32.7753 48.5534 32.4234 48.2016C32.0716 47.8497 31.874 47.3726 31.874 46.875C31.874 46.3775 32.0716 45.9003 32.4234 45.5484L46.0992 31.875H9.375C8.87772 31.875 8.40081 31.6775 8.04918 31.3258C7.69754 30.9742 7.5 30.4973 7.5 30C7.5 29.5027 7.69754 29.0258 8.04918 28.6742C8.40081 28.3225 8.87772 28.125 9.375 28.125H46.0992L32.4234 14.4516C32.0716 14.0997 31.874 13.6226 31.874 13.125C31.874 12.6274 32.0716 12.1503 32.4234 11.7984C32.7753 11.4466 33.2524 11.249 33.75 11.249C34.2476 11.249 34.7247 11.4466 35.0766 11.7984L51.9516 28.6734C52.1259 28.8476 52.2642 29.0544 52.3586 29.282C52.4529 29.5096 52.5015 29.7536 52.5015 30C52.5015 30.2464 52.4529 30.4904 52.3586 30.718C52.2642 30.9456 52.1259 31.1524 51.9516 31.3266Z" fill="#4F4F4F"/>
</g>
</svg>
