<svg width="80" height="32" viewBox="0 0 80 32" fill="none" xmlns="http://www.w3.org/2000/svg">
<g id="KSENIYA&#226;&#128;&#168;DEDIK">
<path d="M11.0035 0.200073L5.02379 6.56241L4.77972 6.58242L1.30171 10.2638L1.09832 7.92291L8.33909 0.200073H11.0035ZM2.1763 0.200073V13.4049H0V0.200073H2.1763ZM5.47126 4.92181L11.1256 13.4049H8.56282L3.74242 6.12225L5.47126 4.92181Z" fill="url(#paint0_linear_203_500)"/>
<path d="M17.2987 0C18.5055 0 19.5496 0.22675 20.4309 0.68025C21.3123 1.12041 22.0581 1.77399 22.6682 2.64097L21.2038 4.02148C20.6886 3.24786 20.1055 2.69432 19.4546 2.36087C18.8173 2.01407 18.058 1.84068 17.1766 1.84068C16.5258 1.84068 15.9902 1.92738 15.5698 2.10077C15.1495 2.27417 14.8376 2.50759 14.6342 2.80103C14.4444 3.08113 14.3495 3.40125 14.3495 3.76138C14.3495 4.17487 14.4919 4.535 14.7766 4.84178C15.0749 5.14856 15.6241 5.38865 16.4241 5.56205L19.1496 6.16227C20.4513 6.44237 21.3733 6.86919 21.9157 7.44274C22.4581 8.01628 22.7293 8.74322 22.7293 9.62354C22.7293 10.4372 22.5055 11.1441 22.0581 11.7443C21.6106 12.3445 20.9869 12.8047 20.1869 13.1248C19.4004 13.4449 18.4716 13.605 17.4004 13.605C16.4512 13.605 15.597 13.485 14.8376 13.2449C14.0783 13.0048 13.4139 12.678 12.8444 12.2645C12.2749 11.851 11.8071 11.3775 11.441 10.844L12.9461 9.36344C13.2308 9.83028 13.5902 10.2504 14.0241 10.6239C14.458 10.984 14.9597 11.2641 15.5292 11.4642C16.1122 11.6643 16.7563 11.7643 17.4614 11.7643C18.0851 11.7643 18.6207 11.691 19.0682 11.5442C19.5292 11.3975 19.875 11.1841 20.1055 10.904C20.3496 10.6106 20.4716 10.2638 20.4716 9.86363C20.4716 9.47682 20.336 9.13669 20.0648 8.84325C19.8072 8.54981 19.319 8.32306 18.6004 8.163L15.6512 7.50276C14.8376 7.32936 14.1664 7.0826 13.6376 6.76249C13.1088 6.44237 12.7156 6.05556 12.4579 5.60206C12.2003 5.13522 12.0715 4.61503 12.0715 4.04149C12.0715 3.29454 12.2749 2.62096 12.6817 2.02074C13.102 1.40718 13.7054 0.920338 14.4919 0.560206C15.2783 0.186735 16.2139 0 17.2987 0Z" fill="url(#paint1_linear_203_500)"/>
<path d="M25.3653 13.4049V0.200073H35.0874V2.04075H27.5416V5.84215H33.4399V7.64281H27.5416V11.5643H35.3722V13.4049H25.3653Z" fill="url(#paint2_linear_203_500)"/>
<path d="M48.8925 0.200073V13.4049H46.3094L41.1229 5.08187L39.8212 2.74101H39.8009L39.8822 4.88179V13.4049H37.889V0.200073H40.4517L45.6179 8.50313L46.9399 10.884H46.9603L46.8789 8.72321V0.200073H48.8925Z" fill="url(#paint3_linear_203_500)"/>
<path d="M54.6348 0.200073V13.4049H52.4586V0.200073H54.6348Z" fill="url(#paint4_linear_203_500)"/>
<path d="M68.1754 0.200073L63.3753 8.34307V13.4049H61.199V8.34307L56.4193 0.200073H58.8397L61.2397 4.46164L62.2973 6.42236L63.355 4.46164L65.7347 0.200073H68.1754Z" fill="url(#paint5_linear_203_500)"/>
<path d="M79.5152 13.4049H77.2168L75.9354 9.94366H70.3015L69.0201 13.4049H66.7828L71.8473 0.200073H74.4507L79.5152 13.4049ZM70.9117 8.20302H75.3253L73.1286 2.04075L70.9117 8.20302Z" fill="url(#paint6_linear_203_500)"/>
<path d="M15.5347 18.7951C17.6365 18.7951 19.2704 19.3687 20.4365 20.5158C21.6162 21.6495 22.206 23.2768 22.206 25.3976C22.206 27.5184 21.6162 29.1523 20.4365 30.2994C19.2704 31.4331 17.6365 32 15.5347 32H10.7957V18.7951H15.5347ZM15.5347 30.1793C16.9585 30.1793 18.0432 29.7658 18.789 28.9389C19.5483 28.0986 19.928 26.9181 19.928 25.3976C19.928 23.877 19.5483 22.7032 18.789 21.8763C18.0432 21.036 16.9585 20.6158 15.5347 20.6158H12.972V30.1793H15.5347Z" fill="url(#paint7_linear_203_500)"/>
<path d="M25.0276 32V18.7951H34.7498V20.6358H27.2039V24.4372H33.1023V26.2379H27.2039V30.1593H35.0345V32H25.0276Z" fill="url(#paint8_linear_203_500)"/>
<path d="M42.2904 18.7951C44.3921 18.7951 46.026 19.3687 47.1921 20.5158C48.3718 21.6495 48.9616 23.2768 48.9616 25.3976C48.9616 27.5184 48.3718 29.1523 47.1921 30.2994C46.026 31.4331 44.3921 32 42.2904 32H37.5513V18.7951H42.2904ZM42.2904 30.1793C43.7141 30.1793 44.7989 29.7658 45.5446 28.9389C46.304 28.0986 46.6836 26.9181 46.6836 25.3976C46.6836 23.877 46.304 22.7032 45.5446 21.8763C44.7989 21.036 43.7141 20.6158 42.2904 20.6158H39.7276V30.1793H42.2904Z" fill="url(#paint9_linear_203_500)"/>
<path d="M53.9595 18.7951V32H51.7832V18.7951H53.9595Z" fill="url(#paint10_linear_203_500)"/>
<path d="M68.5374 18.7951L62.5576 25.1575L62.3136 25.1775L58.8355 28.8588L58.6322 26.518L65.8729 18.7951H68.5374ZM59.7101 18.7951V32H57.5338V18.7951H59.7101ZM63.0051 23.5169L68.6594 32H66.0967L61.2763 24.7173L63.0051 23.5169Z" fill="url(#paint11_linear_203_500)"/>
</g>
<defs>
<linearGradient id="paint0_linear_203_500" x1="0.190742" y1="-0.327843" x2="84.8746" y2="33.1756" gradientUnits="userSpaceOnUse">
<stop stop-color="#BC3CD8"/>
<stop offset="1" stop-color="#C54B8C"/>
</linearGradient>
<linearGradient id="paint1_linear_203_500" x1="0.190742" y1="-0.327843" x2="84.8746" y2="33.1756" gradientUnits="userSpaceOnUse">
<stop stop-color="#BC3CD8"/>
<stop offset="1" stop-color="#C54B8C"/>
</linearGradient>
<linearGradient id="paint2_linear_203_500" x1="0.190742" y1="-0.327843" x2="84.8746" y2="33.1756" gradientUnits="userSpaceOnUse">
<stop stop-color="#BC3CD8"/>
<stop offset="1" stop-color="#C54B8C"/>
</linearGradient>
<linearGradient id="paint3_linear_203_500" x1="0.190742" y1="-0.327843" x2="84.8746" y2="33.1756" gradientUnits="userSpaceOnUse">
<stop stop-color="#BC3CD8"/>
<stop offset="1" stop-color="#C54B8C"/>
</linearGradient>
<linearGradient id="paint4_linear_203_500" x1="0.190742" y1="-0.327843" x2="84.8746" y2="33.1756" gradientUnits="userSpaceOnUse">
<stop stop-color="#BC3CD8"/>
<stop offset="1" stop-color="#C54B8C"/>
</linearGradient>
<linearGradient id="paint5_linear_203_500" x1="0.190742" y1="-0.327843" x2="84.8746" y2="33.1756" gradientUnits="userSpaceOnUse">
<stop stop-color="#BC3CD8"/>
<stop offset="1" stop-color="#C54B8C"/>
</linearGradient>
<linearGradient id="paint6_linear_203_500" x1="0.190742" y1="-0.327843" x2="84.8746" y2="33.1756" gradientUnits="userSpaceOnUse">
<stop stop-color="#BC3CD8"/>
<stop offset="1" stop-color="#C54B8C"/>
</linearGradient>
<linearGradient id="paint7_linear_203_500" x1="0.190742" y1="-0.327843" x2="84.8746" y2="33.1756" gradientUnits="userSpaceOnUse">
<stop stop-color="#BC3CD8"/>
<stop offset="1" stop-color="#C54B8C"/>
</linearGradient>
<linearGradient id="paint8_linear_203_500" x1="0.190742" y1="-0.327843" x2="84.8746" y2="33.1756" gradientUnits="userSpaceOnUse">
<stop stop-color="#BC3CD8"/>
<stop offset="1" stop-color="#C54B8C"/>
</linearGradient>
<linearGradient id="paint9_linear_203_500" x1="0.190742" y1="-0.327843" x2="84.8746" y2="33.1756" gradientUnits="userSpaceOnUse">
<stop stop-color="#BC3CD8"/>
<stop offset="1" stop-color="#C54B8C"/>
</linearGradient>
<linearGradient id="paint10_linear_203_500" x1="0.190742" y1="-0.327843" x2="84.8746" y2="33.1756" gradientUnits="userSpaceOnUse">
<stop stop-color="#BC3CD8"/>
<stop offset="1" stop-color="#C54B8C"/>
</linearGradient>
<linearGradient id="paint11_linear_203_500" x1="0.190742" y1="-0.327843" x2="84.8746" y2="33.1756" gradientUnits="userSpaceOnUse">
<stop stop-color="#BC3CD8"/>
<stop offset="1" stop-color="#C54B8C"/>
</linearGradient>
</defs>
</svg>
