<svg width="33" height="32" viewBox="0 0 33 32" fill="none" xmlns="http://www.w3.org/2000/svg">
<circle cx="16.5" cy="16" r="16" fill="#E3E4E6"/>
<path fill-rule="evenodd" clip-rule="evenodd" d="M8.94602 15.726C8.94602 19.8344 11.9247 22.6336 15.2705 23.2126C15.3615 23.2283 15.4486 23.2619 15.5266 23.3113C15.6046 23.3607 15.6722 23.425 15.7254 23.5005C15.7786 23.576 15.8164 23.6613 15.8367 23.7514C15.8569 23.8415 15.8592 23.9347 15.8435 24.0257C15.8277 24.1168 15.7941 24.2038 15.7447 24.2818C15.6953 24.3599 15.631 24.4274 15.5555 24.4806C15.48 24.5338 15.3948 24.5716 15.3046 24.5919C15.2145 24.6121 15.1213 24.6144 15.0303 24.5987C11.1014 23.9184 7.53967 20.6064 7.53967 15.726C7.53967 13.6516 8.48308 12.0212 9.58441 10.7822C10.374 9.89412 11.2769 9.17206 12.003 8.62005H9.79495C9.61598 8.62005 9.44433 8.54895 9.31778 8.42239C9.19122 8.29584 9.12012 8.12419 9.12012 7.94522C9.12012 7.76624 9.19122 7.59459 9.31778 7.46804C9.44433 7.34148 9.61598 7.27039 9.79495 7.27039H13.8439C14.0229 7.27039 14.1946 7.34148 14.3211 7.46804C14.4477 7.59459 14.5188 7.76624 14.5188 7.94522V11.9942C14.5188 12.1732 14.4477 12.3448 14.3211 12.4714C14.1946 12.5979 14.0229 12.669 13.8439 12.669C13.665 12.669 13.4933 12.5979 13.3668 12.4714C13.2402 12.3448 13.1691 12.1732 13.1691 11.9942V9.50272L13.1678 9.50542C12.3957 10.0858 11.4537 10.797 10.6371 11.7162C9.67214 12.8013 8.94602 14.1145 8.94602 15.726ZM23.938 16.274C23.938 12.2088 21.0228 9.42714 17.7202 8.8063C17.6281 8.79068 17.5401 8.75689 17.4612 8.70689C17.3824 8.6569 17.3143 8.5917 17.2609 8.5151C17.2075 8.43851 17.1699 8.35205 17.1503 8.26077C17.1307 8.16949 17.1295 8.07521 17.1467 7.98345C17.1639 7.89168 17.1992 7.80426 17.2505 7.72629C17.3019 7.64831 17.3682 7.58135 17.4457 7.52929C17.5232 7.47724 17.6103 7.44114 17.702 7.42311C17.7936 7.40507 17.8878 7.40546 17.9793 7.42425C21.8582 8.15306 25.3444 11.4462 25.3444 16.274C25.3444 18.3484 24.401 19.9774 23.2997 21.2178C22.5101 22.1058 21.6072 22.8279 20.8811 23.3799H23.0891C23.2681 23.3799 23.4397 23.451 23.5663 23.5776C23.6928 23.7041 23.7639 23.8758 23.7639 24.0548C23.7639 24.2337 23.6928 24.4054 23.5663 24.5319C23.4397 24.6585 23.2681 24.7296 23.0891 24.7296H19.0401C18.8611 24.7296 18.6895 24.6585 18.5629 24.5319C18.4364 24.4054 18.3653 24.2337 18.3653 24.0548V20.0058C18.3653 19.8268 18.4364 19.6552 18.5629 19.5286C18.6895 19.402 18.8611 19.3309 19.0401 19.3309C19.2191 19.3309 19.3907 19.402 19.5173 19.5286C19.6439 19.6552 19.715 19.8268 19.715 20.0058V22.4959H19.7177C20.4883 21.9128 21.4317 21.2029 22.2469 20.2825C23.2119 19.1987 23.938 17.8868 23.938 16.274Z" fill="url(#paint0_linear_203_467)"/>
<defs>
<linearGradient id="paint0_linear_203_467" x1="7.58238" y1="7.09151" x2="28.9492" y2="10.5608" gradientUnits="userSpaceOnUse">
<stop stop-color="#BC3CD8"/>
<stop offset="1" stop-color="#C54B8C"/>
</linearGradient>
</defs>
</svg>
